<svg width="32" height="32" viewBox="0 0 32 32" fill="none" xmlns="http://www.w3.org/2000/svg">
<g id="Menu/Faction Fleet">
<g id="Background-Fill">
<path fill-rule="evenodd" clip-rule="evenodd" d="M29.3262 2.39661C29.7264 2.2493 30.1155 2.63837 29.9681 3.03855L20.322 29.2437C20.1959 29.5862 19.7573 29.6826 19.4992 29.4246L16.8385 26.7639L17.3138 26.2888C17.723 25.8798 18.0039 25.3603 18.1223 24.794L19.981 15.9042C20.4199 13.805 18.5602 11.9453 16.461 12.3842L7.57116 14.2429C7.00497 14.3613 6.48559 14.6422 6.0766 15.0512L5.60127 15.5266L2.94018 12.8655C2.68211 12.6075 2.77852 12.1688 3.12101 12.0428L29.3262 2.39661ZM15.6316 24.606L15.1561 25.0814L13.1155 27.1213C12.7408 27.496 12.1001 27.2305 12.1001 26.7006L12.1003 20.8597C12.1004 20.5312 11.834 20.2648 11.5055 20.2648H5.66438C5.13444 20.2648 4.86903 19.6241 5.24373 19.2494L7.75908 16.7337C7.78979 16.703 7.82361 16.6759 7.85986 16.6528C7.87213 16.6449 7.88467 16.6376 7.89746 16.6307C7.94764 16.6036 8.00172 16.5837 8.05811 16.5719L16.9479 14.7133C17.3678 14.6255 17.7397 14.9974 17.6519 15.4173L15.7933 24.3071C15.7696 24.4203 15.7134 24.5242 15.6316 24.606Z" fill="#A6A6A6"/>
<path d="M8.99112 23.3732L9.12978 23.5119C9.32505 23.7071 9.32505 24.0237 9.12978 24.219L-3.81031 37.1589C-4.00557 37.3542 -4.32216 37.3542 -4.51742 37.1589L-4.65602 37.0203L-4.79465 36.8817C-4.98992 36.6864 -4.98992 36.3698 -4.79465 36.1746L8.14535 23.2345C8.34061 23.0393 8.65719 23.0393 8.85245 23.2345L8.99112 23.3732Z" fill="#A6A6A6"/>
<path d="M5.42203 22.1835L5.56069 22.3222C5.75596 22.5174 5.75595 22.834 5.56069 23.0293L-7.3794 35.9692C-7.57467 36.1645 -7.89125 36.1645 -8.08651 35.9692L-8.22511 35.8306L-8.36375 35.692C-8.55901 35.4967 -8.55901 35.1801 -8.36375 34.9849L4.57626 22.0448C4.77152 21.8496 5.0881 21.8496 5.28336 22.0448L5.42203 22.1835Z" fill="#A6A6A6"/>
<path d="M10.1808 26.9422L10.3195 27.0809C10.5148 27.2762 10.5148 27.5927 10.3195 27.788L-2.62058 40.728C-2.81585 40.9232 -3.13243 40.9232 -3.32769 40.728L-3.46629 40.5894L-3.60493 40.4507C-3.80019 40.2555 -3.80019 39.9389 -3.60493 39.7436L9.33508 26.8036C9.53034 26.6083 9.84692 26.6083 10.0422 26.8036L10.1808 26.9422Z" fill="#A6A6A6"/>
</g>
</g>
</svg>
