<svg width="32" height="32" viewBox="0 0 32 32" fill="none" xmlns="http://www.w3.org/2000/svg">
<g id="Menu/Home">
<g id="Background-Fill">
<path id="Subtract" fill-rule="evenodd" clip-rule="evenodd" d="M25.2982 13.0577C25.2035 13.2244 25.1051 13.3924 25.003 13.5618C23.7245 15.6825 21.9349 17.9009 19.9179 19.9179C17.9009 21.9349 15.6826 23.7245 13.5618 25.0029C13.3924 25.1051 13.2244 25.2035 13.0577 25.2982C9.11096 24.0505 6.25 20.3593 6.25 16C6.25 10.6152 10.6152 6.25 16 6.25C20.3593 6.25 24.0505 9.11097 25.2982 13.0577ZM25.7496 16.086C24.5053 17.8851 22.9832 19.681 21.3321 21.3321C19.6811 22.9831 17.8851 24.5053 16.086 25.7496C21.4025 25.7037 25.7037 21.4025 25.7496 16.086Z" fill="#A6A6A6"/>
</g>
<g id="Background-Stroke">
<path id="Ellipse" d="M26.0763 5.95621C26.4023 6.28226 26.6016 6.83854 26.5388 7.71988C26.4761 8.59859 26.1558 9.70205 25.5695 10.9671C24.3997 13.4915 22.2421 16.5079 19.3588 19.3912C16.4754 22.2746 13.459 24.4322 10.9347 25.602C9.66957 26.1883 8.56611 26.5086 7.68739 26.5713C6.80605 26.6341 6.24977 26.4348 5.92373 26.1088C5.59768 25.7827 5.39837 25.2264 5.46121 24.3451C5.52386 23.4664 5.84422 22.3629 6.43048 21.0978C7.60032 18.5735 9.75793 15.557 12.6412 12.6737C15.5246 9.79042 18.541 7.6328 21.0653 6.46297C22.3304 5.87671 23.4339 5.55635 24.3126 5.4937C25.1939 5.43086 25.7502 5.63017 26.0763 5.95621Z" stroke="#A6A6A6" stroke-width="1.5"/>
</g>
</g>
</svg>
