<svg width="32" height="32" viewBox="0 0 32 32" fill="none" xmlns="http://www.w3.org/2000/svg">

<g id="Background-Stroke">
  <path d="M29.3146 13.8046L30.8459 17.25H25.25V9.75H30.8459L29.3146 13.1954L29.1793 13.5L29.3146 13.8046Z" stroke="#A6A6A6" stroke-width="1.5"/>
  <circle cx="10.5" cy="10.5" r="5.5" stroke="#A6A6A6" stroke-width="2"/>
</g>

<g id="Background-Fill">
  <rect x="12" y="25" width="3" height="2" fill="#A6A6A6"/>
  <rect x="6" y="25" width="3" height="2" fill="#A6A6A6"/>
  <path d="M14 16L19 18V21L14 19V16Z" fill="#A6A6A6"/>
  <path d="M7 16H14L15 19V25H4C4 20 4 17 7 16Z" fill="#A6A6A6"/>
  <path fill-rule="evenodd" clip-rule="evenodd" d="M4.49817 13C5.47773 15.3489 7.79606 17 10.5 17C13.204 17 15.5223 15.3489 16.5018 13H4.49817ZM17 10.5087C17 10.5058 17 10.5029 17 10.5C17 10.4971 17 10.4942 17 10.4913V10.5087Z" fill="#A6A6A6"/>
  <path fill-rule="evenodd" clip-rule="evenodd" d="M4.49817 8C5.47773 5.65105 7.79606 4 10.5 4C13.204 4 15.5223 5.65105 16.5018 8H4.49817ZM17 10.4906C17 10.4937 17 10.4969 17 10.5C17 10.5031 17 10.5063 17 10.5094V10.4906Z" fill="#A6A6A6"/>
  <path d="M20.5 7H26V16H20.5V7Z" fill="#A6A6A6"/>
  <path d="M19 7H20.5V27H19V7Z" fill="#A6A6A6"/>
</g>
</svg>
