<svg xmlns="http://www.w3.org/2000/svg" width="41.107" height="41.172" viewBox="0 0 41.107 41.172"><g transform="translate(-269.9 -18.516)"><path d="M22.734,0a10.142,10.142,0,0,1-.771,3.742,10.128,10.128,0,0,1-2.209,3.3l-8.99,8.973L7.182,19.586a10.086,10.086,0,0,1-3.293,2.2A10.173,10.173,0,0,1,0,22.553l7.082,0a6.978,6.978,0,0,0,4.947-2.045L19.951,12.6l.732-.729A7,7,0,0,0,22.736,6.92V0Z" transform="translate(292.637 41.07) rotate(180)" fill="#404046" opacity="0.35"/><path d="M40.1,0A17.877,17.877,0,0,1,38.74,6.6a17.843,17.843,0,0,1-3.895,5.82c-6.2,6.184-11.447,11.422-15.861,15.826l-6.314,6.3A17.807,17.807,0,0,1,6.857,38.43,17.911,17.911,0,0,1,0,39.785l12.492,0a12.341,12.341,0,0,0,8.727-3.605c4.053-4.047,9.113-9.1,13.977-13.951l1.291-1.287a12.352,12.352,0,0,0,3.621-8.734V0Z" transform="translate(311.008 59.688) rotate(180)" fill="#404046"/></g></svg>