<svg width="32" height="32" viewBox="0 0 32 32" fill="none" xmlns="http://www.w3.org/2000/svg">
<g id="Menu/Marketplace">
<g id="Background-Fill">
<circle id="Ellipse" cx="22.5" cy="26.5" r="2.5" fill="#A6A6A6"/>
<circle id="Ellipse_2" cx="12.5" cy="26.5" r="2.5" fill="#A6A6A6"/>
<path id="Line" d="M5 4C4.58579 4 4.25 4.33579 4.25 4.75C4.25 5.16421 4.58579 5.5 5 5.5V4ZM5 5.5H7.75V4H5V5.5ZM9 6.75V9H10.5V6.75H9ZM7.75 5.5C8.44036 5.5 9 6.05964 9 6.75H10.5C10.5 5.23122 9.26878 4 7.75 4V5.5Z" fill="#A6A6A6"/>
<path id="Union" fill-rule="evenodd" clip-rule="evenodd" d="M9 7H27C28.1046 7 29 7.89543 29 9V16.1716C29 16.702 28.7893 17.2107 28.4142 17.5858L24.5858 21.4142C24.2107 21.7893 23.702 22 23.1716 22H9H5C4.58579 22 4.25 21.6642 4.25 21.25C4.25 20.8358 4.58579 20.5 5 20.5H9H10C10.4142 20.5 10.75 20.1642 10.75 19.75C10.75 19.3358 10.4142 19 10 19H9H6C5.58579 19 5.25 18.6642 5.25 18.25C5.25 17.8358 5.58579 17.5 6 17.5H9H10C10.4142 17.5 10.75 17.1642 10.75 16.75C10.75 16.3358 10.4142 16 10 16H9H8C7.58579 16 7.25 15.6642 7.25 15.25C7.25 14.8358 7.58579 14.5 8 14.5H9H10C10.4142 14.5 10.75 14.1642 10.75 13.75C10.75 13.3358 10.4142 13 10 13H9V7Z" fill="#A6A6A6"/>
</g>
</g>
</svg>
