<svg xmlns="http://www.w3.org/2000/svg" width="190" height="100" viewBox="0 0 190 100"><g transform="translate(-27 -36)" opacity="0.15"><g transform="translate(27 36)" fill="none" stroke="#403f45" stroke-width="3"><rect width="10" height="10" rx="5" stroke="none"/><rect x="1.5" y="1.5" width="7" height="7" rx="3.5" fill="none"/></g><g transform="translate(57 36)" fill="none" stroke="#403f45" stroke-width="3"><rect width="10" height="10" rx="5" stroke="none"/><rect x="1.5" y="1.5" width="7" height="7" rx="3.5" fill="none"/></g><g transform="translate(87 36)" fill="none" stroke="#403f45" stroke-width="3"><rect width="10" height="10" rx="5" stroke="none"/><rect x="1.5" y="1.5" width="7" height="7" rx="3.5" fill="none"/></g><g transform="translate(117 36)" fill="none" stroke="#403f45" stroke-width="3"><rect width="10" height="10" rx="5" stroke="none"/><rect x="1.5" y="1.5" width="7" height="7" rx="3.5" fill="none"/></g><g transform="translate(147 36)" fill="none" stroke="#403f45" stroke-width="3"><rect width="10" height="10" rx="5" stroke="none"/><rect x="1.5" y="1.5" width="7" height="7" rx="3.5" fill="none"/></g><g transform="translate(177 36)" fill="none" stroke="#403f45" stroke-width="3"><rect width="10" height="10" rx="5" stroke="none"/><rect x="1.5" y="1.5" width="7" height="7" rx="3.5" fill="none"/></g><g transform="translate(207 36)" fill="none" stroke="#403f45" stroke-width="3"><rect width="10" height="10" rx="5" stroke="none"/><rect x="1.5" y="1.5" width="7" height="7" rx="3.5" fill="none"/></g><g transform="translate(207 36)" fill="none" stroke="#403f45" stroke-width="3"><rect width="10" height="10" rx="5" stroke="none"/><rect x="1.5" y="1.5" width="7" height="7" rx="3.5" fill="none"/></g><g transform="translate(27 66)" fill="none" stroke="#403f45" stroke-width="3"><rect width="10" height="10" rx="5" stroke="none"/><rect x="1.5" y="1.5" width="7" height="7" rx="3.5" fill="none"/></g><g transform="translate(27 96)" fill="none" stroke="#403f45" stroke-width="3"><rect width="10" height="10" rx="5" stroke="none"/><rect x="1.5" y="1.5" width="7" height="7" rx="3.5" fill="none"/></g><g transform="translate(27 126)" fill="none" stroke="#403f45" stroke-width="3"><rect width="10" height="10" rx="5" stroke="none"/><rect x="1.5" y="1.5" width="7" height="7" rx="3.5" fill="none"/></g><g transform="translate(57 66)" fill="none" stroke="#403f45" stroke-width="3"><rect width="10" height="10" rx="5" stroke="none"/><rect x="1.5" y="1.5" width="7" height="7" rx="3.5" fill="none"/></g><g transform="translate(57 96)" fill="none" stroke="#403f45" stroke-width="3"><rect width="10" height="10" rx="5" stroke="none"/><rect x="1.5" y="1.5" width="7" height="7" rx="3.5" fill="none"/></g><g transform="translate(87 66)" fill="none" stroke="#403f45" stroke-width="3"><rect width="10" height="10" rx="5" stroke="none"/><rect x="1.5" y="1.5" width="7" height="7" rx="3.5" fill="none"/></g><g transform="translate(117 66)" fill="none" stroke="#403f45" stroke-width="3"><rect width="10" height="10" rx="5" stroke="none"/><rect x="1.5" y="1.5" width="7" height="7" rx="3.5" fill="none"/></g><g transform="translate(147 66)" fill="none" stroke="#403f45" stroke-width="3"><rect width="10" height="10" rx="5" stroke="none"/><rect x="1.5" y="1.5" width="7" height="7" rx="3.5" fill="none"/></g><g transform="translate(177 66)" fill="none" stroke="#403f45" stroke-width="3"><rect width="10" height="10" rx="5" stroke="none"/><rect x="1.5" y="1.5" width="7" height="7" rx="3.5" fill="none"/></g></g></svg>